<?xml version="1.0" standalone="no"?>
<!DOCTYPE svg PUBLIC "-//W3C//DTD SVG 20010904//EN"
 "http://www.w3.org/TR/2001/REC-SVG-20010904/DTD/svg10.dtd">
<svg version="1.0" xmlns="http://www.w3.org/2000/svg"
 width="330.000000pt" height="150.000000pt" viewBox="0 0 330.000000 150.000000"
 preserveAspectRatio="xMidYMid meet">

<g transform="translate(0.000000,150.000000) scale(0.100000,-0.100000)"
fill="#000000" stroke="none">
<path d="M2230 1003 c-50 -19 -72 -80 -46 -131 8 -16 23 -32 31 -36 28 -10 80
-7 100 7 24 18 11 41 -15 27 -33 -18 -68 -12 -86 15 -34 52 15 112 72 86 14
-6 30 -9 35 -6 35 22 -44 55 -91 38z"/>
<path d="M2730 997 c-53 -27 -64 -89 -24 -136 54 -64 154 -27 154 56 -1 74
-65 113 -130 80z m82 -34 c22 -20 24 -66 2 -87 -23 -24 -70 -20 -88 6 -21 30
-20 54 4 78 24 24 57 26 82 3z"/>
<path d="M240 783 l0 -218 528 0 527 0 0 217 0 218 -527 0 -528 0 0 -217z
m520 -3 l0 -200 -247 2 -248 3 -3 198 -2 197 250 0 250 0 0 -200z m518 3 l-3
-198 -247 -3 -248 -2 0 200 0 200 250 0 250 0 -2 -197z"/>
<path d="M410 780 c0 -123 1 -130 20 -130 16 0 20 7 20 34 0 33 0 33 58 39 70
7 102 37 102 95 -1 67 -37 92 -134 92 l-66 0 0 -130z m131 80 c20 -11 26 -54
10 -79 -5 -8 -27 -15 -53 -15 -43 -1 -43 -1 -46 38 -2 21 -1 44 2 52 6 16 59
19 87 4z"/>
<path d="M900 780 c0 -123 1 -130 20 -130 18 0 20 7 20 70 0 39 3 70 8 70 4 0
21 -20 37 -45 17 -24 35 -45 42 -45 6 0 26 20 44 45 17 24 36 42 40 39 5 -3 9
-34 9 -70 0 -57 2 -64 20 -64 19 0 20 7 20 131 0 100 -3 130 -12 127 -7 -3
-35 -37 -63 -76 -27 -39 -52 -71 -55 -71 -3 -1 -29 33 -58 74 -30 41 -58 75
-63 75 -5 0 -9 -58 -9 -130z"/>
<path d="M1420 915 c0 -69 3 -85 15 -85 9 0 15 9 15 25 0 22 4 25 35 25 41 0
75 29 75 63 0 38 -30 57 -88 57 l-52 0 0 -85z m100 50 c6 -8 9 -23 5 -35 -5
-15 -15 -20 -41 -20 -32 0 -34 2 -34 35 0 32 3 35 29 35 16 0 34 -7 41 -15z"/>
<path d="M1681 918 c-22 -48 -34 -85 -28 -87 6 -2 17 6 25 18 20 29 87 30 102
1 6 -11 17 -20 25 -20 10 0 3 23 -26 83 -22 45 -44 84 -49 85 -6 2 -27 -34
-49 -80z m67 7 c16 -35 16 -35 -18 -35 -16 0 -30 2 -30 5 0 11 24 55 30 55 4
0 12 -11 18 -25z"/>
<path d="M1920 915 c0 -50 4 -85 10 -85 6 0 10 25 10 55 0 30 2 55 4 55 3 0
28 -25 57 -55 28 -30 56 -55 60 -55 5 0 9 38 9 85 0 69 -3 85 -15 85 -11 0
-15 -12 -15 -50 0 -27 -4 -50 -9 -50 -5 0 -28 23 -51 50 -23 28 -46 50 -51 50
-5 0 -9 -38 -9 -85z"/>
<path d="M2430 915 c0 -67 3 -85 14 -85 9 0 16 12 18 33 3 30 6 32 46 35 l42
3 0 -35 c0 -25 4 -36 15 -36 12 0 15 16 15 85 0 69 -3 85 -15 85 -11 0 -15
-11 -15 -40 l0 -40 -45 0 -45 0 0 40 c0 29 -4 40 -15 40 -12 0 -15 -16 -15
-85z"/>
<path d="M1778 783 c199 -2 525 -2 725 0 199 1 36 2 -363 2 -399 0 -562 -1
-362 -2z"/>
<path d="M2245 738 c-32 -19 -44 -41 -45 -81 0 -52 35 -87 87 -87 46 1 86 26
63 40 -9 6 -19 5 -24 0 -15 -15 -63 -12 -80 6 -25 25 -20 71 10 91 22 14 31
15 57 5 34 -13 56 -2 33 17 -21 18 -78 23 -101 9z"/>
<path d="M1420 655 c0 -69 3 -85 15 -85 11 0 15 12 15 45 0 53 8 56 35 15 11
-16 22 -30 25 -30 3 0 14 14 25 30 27 41 35 38 35 -15 0 -33 4 -45 15 -45 12
0 15 16 15 85 0 47 -4 85 -10 85 -5 0 -23 -20 -40 -45 -17 -25 -34 -45 -39
-45 -4 0 -22 20 -40 45 -18 25 -36 45 -42 45 -5 0 -9 -38 -9 -85z"/>
<path d="M1731 658 c-22 -48 -34 -85 -28 -87 6 -2 17 6 25 18 20 29 87 30 102
1 6 -11 17 -20 25 -20 10 0 3 23 -26 83 -22 45 -44 84 -49 85 -6 2 -27 -34
-49 -80z m67 7 c16 -35 16 -35 -18 -35 -16 0 -30 2 -30 5 0 11 24 55 30 55 4
0 12 -11 18 -25z"/>
<path d="M1970 655 c0 -50 4 -85 10 -85 6 0 10 11 10 25 0 20 5 25 24 25 14 0
30 -10 40 -25 9 -14 23 -25 31 -25 19 0 19 9 -2 32 -15 17 -15 19 0 36 19 21
22 54 7 83 -9 15 -22 19 -65 19 l-55 0 0 -85z m93 44 c17 -28 1 -49 -38 -49
-32 0 -35 3 -35 28 0 16 3 32 7 36 12 12 55 2 66 -15z"/>
<path d="M2470 655 c0 -50 4 -85 10 -85 6 0 10 35 10 85 0 50 -4 85 -10 85 -6
0 -10 -35 -10 -85z"/>
<path d="M2637 665 c-20 -42 -37 -80 -37 -85 0 -18 29 -10 35 10 9 29 77 28
97 -1 8 -12 20 -20 26 -18 13 4 -60 169 -75 169 -5 0 -25 -34 -46 -75z m69
-32 c-2 -2 -15 -3 -29 -1 -25 3 -25 3 -10 38 l15 35 15 -34 c8 -18 12 -35 9
-38z"/>
<path d="M2870 655 l0 -85 60 0 c46 0 60 3 60 14 0 11 -14 16 -47 18 l-48 3
-3 68 c-4 97 -22 83 -22 -18z"/>
</g>
</svg>
